<svg width="195" height="98" viewBox="0 0 195 98" fill="none" xmlns="http://www.w3.org/2000/svg">
<g filter="url(#filter0_d_544_4)">
<path d="M12.688 40.672C11.152 40.672 9.744 40.416 8.464 39.904C7.22667 39.392 6.16 38.688 5.264 37.792C4.41067 36.8533 3.728 35.744 3.216 34.464C2.74667 33.184 2.512 31.776 2.512 30.24C2.512 26.9973 3.42933 24.4587 5.264 22.624C7.14133 20.7893 9.616 19.7653 12.688 19.552C15.1627 19.3387 17.4667 19.2107 19.6 19.168C21.776 19.0827 23.9093 19.04 26 19.04C28.048 19.04 30.1173 19.0827 32.208 19.168C34.3413 19.2533 36.6027 19.3813 38.992 19.552C42.064 19.7653 44.5173 20.8107 46.352 22.688C48.2293 24.5227 49.168 26.9973 49.168 30.112C49.168 31.648 48.912 33.0773 48.4 34.4C47.9307 35.68 47.248 36.7893 46.352 37.728C45.456 38.6667 44.3893 39.392 43.152 39.904C41.9147 40.416 40.528 40.672 38.992 40.672H36.88C36.6667 39.8187 36.4107 38.9227 36.112 37.984C35.856 37.0453 35.6 36.192 35.344 35.424C35.216 35.1253 35.024 34.9333 34.768 34.848C34.5547 34.7627 34.3413 34.7413 34.128 34.784C33.9147 34.784 33.7227 34.8693 33.552 35.04C33.424 35.168 33.4027 35.3387 33.488 35.552C34.1707 37.6853 34.7467 39.9893 35.216 42.464C35.6853 44.9387 36.0267 47.4133 36.24 49.888C36.496 52.3627 36.6453 54.7733 36.688 57.12C36.7733 59.424 36.752 61.472 36.624 63.264C36.496 64.5867 36.1973 65.888 35.728 67.168C35.2587 68.4053 34.576 69.5147 33.68 70.496C32.8267 71.4773 31.76 72.2667 30.48 72.864C29.2 73.4613 27.664 73.76 25.872 73.76C24.1227 73.76 22.5867 73.4613 21.264 72.864C19.984 72.2667 18.896 71.4773 18 70.496C17.1467 69.5147 16.464 68.4053 15.952 67.168C15.4827 65.888 15.2053 64.5867 15.12 63.264C14.864 59.6373 14.864 55.9467 15.12 52.192C15.376 48.4373 15.9733 44.5973 16.912 40.672H12.688Z" fill="#DF2D32"/>
<path d="M73.6235 55.648C73.5382 57.2267 73.4315 58.8053 73.3035 60.384C73.1755 61.9627 73.0475 63.5413 72.9195 65.12C72.7915 66.3147 72.5355 67.424 72.1515 68.448C71.7675 69.5147 71.2128 70.432 70.4875 71.2C69.8048 71.968 68.9515 72.5653 67.9275 72.992C66.9462 73.4613 65.7942 73.696 64.4715 73.696C63.1062 73.696 61.9115 73.4613 60.8875 72.992C59.9062 72.5653 59.0528 71.968 58.3275 71.2C57.6448 70.432 57.1115 69.5147 56.7275 68.448C56.3435 67.424 56.0875 66.3147 55.9595 65.12C55.3195 59.0187 54.9995 52.8107 54.9995 46.496C55.0422 40.1813 55.3622 33.9733 55.9595 27.872C56.1302 26.336 56.4928 25.0347 57.0475 23.968C57.6022 22.9013 58.3062 22.0267 59.1595 21.344C60.0128 20.6613 60.9728 20.1493 62.0395 19.808C63.1488 19.424 64.3222 19.1467 65.5595 18.976C67.0528 18.8053 68.5675 18.6773 70.1035 18.592C71.6822 18.464 73.2182 18.4 74.7115 18.4C77.6982 18.3573 80.6422 18.528 83.5435 18.912C86.4875 19.296 89.1115 20.128 91.4155 21.408C93.7622 22.688 95.6395 24.5653 97.0475 27.04C98.4982 29.5147 99.2235 32.8213 99.2235 36.96C99.2235 39.8613 98.8822 42.336 98.1995 44.384C97.5595 46.432 96.6422 48.16 95.4475 49.568C94.2955 50.9333 92.9088 52.0427 91.2875 52.896C89.7088 53.7067 87.9595 54.3253 86.0395 54.752C84.1622 55.1787 82.1568 55.456 80.0235 55.584C77.9328 55.6693 75.7995 55.6907 73.6235 55.648ZM73.6235 38.304C76.2688 39.6693 79.1062 40.2027 82.1355 39.904C82.5195 39.8613 82.7755 39.712 82.9035 39.456C83.0742 39.2 83.1595 38.944 83.1595 38.688C83.1595 38.3893 83.0742 38.1333 82.9035 37.92C82.7755 37.7067 82.5835 37.6 82.3275 37.6C80.7488 37.6853 79.3408 37.6 78.1035 37.344C76.8662 37.088 75.5648 36.6613 74.1995 36.064C73.9435 35.936 73.7088 35.9573 73.4955 36.128C73.2822 36.256 73.1115 36.448 72.9835 36.704C72.8982 36.96 72.8982 37.2587 72.9835 37.6C73.0688 37.8987 73.2822 38.1333 73.6235 38.304Z" fill="#1D73BA"/>
<path d="M130.587 74.208C126.149 74.208 122.331 73.5467 119.131 72.224C115.931 70.944 113.285 69.1093 111.195 66.72C109.147 64.288 107.611 61.3653 106.587 57.952C105.605 54.496 105.115 50.6133 105.115 46.304C105.115 41.9947 105.563 38.1333 106.459 34.72C107.355 31.264 108.805 28.3413 110.811 25.952C112.816 23.52 115.44 21.664 118.683 20.384C121.925 19.0613 125.893 18.4 130.587 18.4C135.28 18.4 139.248 19.0613 142.491 20.384C145.733 21.664 148.357 23.52 150.363 25.952C152.368 28.3413 153.819 31.264 154.715 34.72C155.611 38.1333 156.059 41.9947 156.059 46.304C156.059 50.6133 155.547 54.496 154.523 57.952C153.541 61.3653 152.005 64.288 149.915 66.72C147.867 69.1093 145.221 70.944 141.979 72.224C138.779 73.5467 134.981 74.208 130.587 74.208ZM128.283 50.464C128.112 50.6773 128.091 50.8907 128.219 51.104C128.347 51.3173 128.539 51.4667 128.795 51.552C129.051 51.6373 129.328 51.6587 129.627 51.616C129.968 51.5733 130.245 51.424 130.459 51.168C131.355 49.888 131.952 48.4373 132.251 46.816C132.549 45.1947 132.72 43.5733 132.763 41.952C132.763 41.568 132.656 41.2907 132.443 41.12C132.229 40.9493 131.973 40.864 131.675 40.864C131.419 40.8213 131.163 40.864 130.907 40.992C130.651 41.12 130.523 41.312 130.523 41.568C130.437 43.1467 130.224 44.64 129.883 46.048C129.541 47.456 129.008 48.928 128.283 50.464Z" fill="#FFF100"/>
</g>
<path d="M10.492 89.76C9.964 89.84 9.644 89.888 9.532 89.904C9.26 89.952 9.08 89.94 8.992 89.868C8.904 89.788 8.856 89.64 8.848 89.424C8.808 88.8 8.8 88.248 8.824 87.768C8.824 87.648 8.864 87.548 8.944 87.468C9.032 87.38 9.14 87.328 9.268 87.312C9.34 87.304 9.76 87.264 10.528 87.192C10.6 86.776 10.636 86.556 10.636 86.532C10.668 86.38 10.712 86.16 10.768 85.872C10.824 85.584 10.856 85.42 10.864 85.38C10.896 85.196 11.012 85.076 11.212 85.02C11.884 84.844 12.432 84.896 12.856 85.176C13.008 85.272 13.084 85.42 13.084 85.62C13.084 85.748 13.108 86.196 13.156 86.964C13.172 87.148 13.284 87.224 13.492 87.192C13.788 87.136 14.088 87.104 14.392 87.096C14.856 87.08 15.1 87.3 15.124 87.756C15.14 88.004 15.136 88.46 15.112 89.124C15.112 89.22 15.04 89.312 14.896 89.4C14.76 89.48 14.608 89.528 14.44 89.544C14.376 89.552 14.144 89.592 13.744 89.664C13.552 89.696 13.456 89.808 13.456 90C13.472 90.688 13.496 91.388 13.528 92.1C13.528 92.22 13.564 92.32 13.636 92.4C13.708 92.472 13.804 92.516 13.924 92.532C14.028 92.556 14.204 92.508 14.452 92.388C14.708 92.26 14.904 92.196 15.04 92.196C15.256 92.204 15.388 92.232 15.436 92.28C15.492 92.328 15.516 92.456 15.508 92.664C15.5 93 15.452 93.348 15.364 93.708C15.284 94.076 15.144 94.308 14.944 94.404C14.248 94.756 13.444 94.968 12.532 95.04C11.972 95.088 11.668 95.112 11.62 95.112C11.148 95.112 10.876 94.892 10.804 94.452C10.652 93.54 10.552 92.756 10.504 92.1C10.496 91.876 10.488 91.64 10.48 91.392C10.48 91.144 10.48 90.852 10.48 90.516C10.488 90.18 10.492 89.928 10.492 89.76ZM18.7402 84.564C18.8362 84.54 18.9842 84.5 19.1842 84.444C19.3922 84.38 19.5722 84.332 19.7242 84.3C19.8842 84.26 20.0402 84.228 20.1922 84.204C20.6322 84.148 20.9362 84.316 21.1042 84.708C21.1442 84.796 21.1762 84.888 21.2002 84.984C21.2242 85.072 21.2402 85.168 21.2482 85.272C21.2562 85.368 21.2602 85.452 21.2602 85.524C21.2602 85.596 21.2522 85.692 21.2362 85.812C21.2282 85.932 21.2202 86.02 21.2122 86.076C21.2122 86.124 21.2002 86.22 21.1762 86.364C21.1522 86.5 21.1402 86.584 21.1402 86.616C21.1082 86.816 20.9522 86.92 20.6722 86.928C20.0162 86.952 19.5642 86.964 19.3162 86.964C19.2602 86.956 19.2002 86.932 19.1362 86.892C19.0802 86.852 19.0362 86.808 19.0042 86.76C18.6762 86.192 18.5762 85.592 18.7042 84.96C18.7042 84.952 18.7162 84.82 18.7402 84.564ZM19.0522 88.404C19.7802 88.148 20.5402 88.148 21.3322 88.404C21.7722 88.548 21.9922 88.836 21.9922 89.268C22.0002 91.132 22.0002 92.652 21.9922 93.828C21.9842 94.172 21.9282 94.396 21.8242 94.5C21.7202 94.612 21.4962 94.692 21.1522 94.74C21.0562 94.756 20.8962 94.784 20.6722 94.824C20.4482 94.872 20.2762 94.9 20.1562 94.908C20.0602 94.924 19.9482 94.88 19.8202 94.776C19.6682 94.648 19.5442 94.512 19.4482 94.368C19.3602 94.224 19.2922 94.056 19.2442 93.864C19.2042 93.672 19.1762 93.512 19.1602 93.384C19.1522 93.256 19.1442 93.072 19.1362 92.832C19.1282 92.776 19.1242 92.732 19.1242 92.7C19.1082 92.244 19.0842 91.272 19.0522 89.784C19.0522 89.728 19.0522 89.268 19.0522 88.404ZM30.0322 94.536C29.1202 94.536 28.6162 94.536 28.5202 94.536C28.4482 94.536 28.3922 94.52 28.3522 94.488C28.3202 94.456 28.2922 94.4 28.2682 94.32C28.2442 94.248 28.2282 94.2 28.2202 94.176C27.9242 93.616 27.7362 93.26 27.6562 93.108C27.5362 92.892 27.3442 92.832 27.0802 92.928C27.0162 92.952 26.9522 93 26.8882 93.072C26.8322 93.152 26.8002 93.224 26.7922 93.288C26.7602 93.56 26.7722 93.852 26.8282 94.164C26.8602 94.372 26.8562 94.5 26.8162 94.548C26.7842 94.596 26.6682 94.62 26.4682 94.62C26.1962 94.612 25.7802 94.604 25.2202 94.596C24.6602 94.596 24.2362 94.592 23.9482 94.584C23.9402 94.584 23.8482 94.564 23.6722 94.524V93.396C23.6802 92.14 23.6842 91.44 23.6842 91.296C23.6922 91.136 23.7242 90.444 23.7802 89.22C23.8122 88.628 23.8282 88.324 23.8282 88.308C23.8282 88.292 23.7962 88.104 23.7322 87.744L26.1322 87.372V88.344C26.2362 88.248 26.3162 88.176 26.3722 88.128C26.4282 88.072 26.5002 88.008 26.5882 87.936C26.6842 87.856 26.7642 87.796 26.8282 87.756C26.9002 87.716 26.9842 87.676 27.0802 87.636C27.1762 87.588 27.2682 87.556 27.3562 87.54C27.4442 87.524 27.5402 87.52 27.6442 87.528C27.7482 87.528 27.8562 87.54 27.9682 87.564C28.3362 87.652 28.6082 87.824 28.7842 88.08C28.9602 88.328 29.1042 88.676 29.2162 89.124C29.3522 88.804 29.4242 88.636 29.4322 88.62C29.5602 88.276 29.8202 88.04 30.2122 87.912C30.6042 87.784 30.9722 87.8 31.3162 87.96C31.4602 88.024 31.5922 88.1 31.7122 88.188C31.8402 88.276 31.9482 88.36 32.0362 88.44C32.1322 88.52 32.2282 88.628 32.3242 88.764C32.4202 88.892 32.4922 88.996 32.5402 89.076C32.5962 89.156 32.6602 89.284 32.7322 89.46C32.8122 89.628 32.8682 89.748 32.9002 89.82C32.9322 89.892 32.9842 90.024 33.0562 90.216C33.1282 90.408 33.1762 90.536 33.2002 90.6C33.4002 91.104 33.5362 91.632 33.6082 92.184C33.6882 92.728 33.7442 93.364 33.7762 94.092C33.7762 94.132 33.7522 94.18 33.7042 94.236C33.6562 94.292 33.6162 94.32 33.5842 94.32C33.0002 94.352 32.2682 94.372 31.3882 94.38C31.3162 94.38 31.2562 94.36 31.2082 94.32C31.1602 94.288 31.1282 94.248 31.1122 94.2C31.1042 94.16 31.0922 94.1 31.0762 94.02C31.0122 93.652 30.9242 93.384 30.8122 93.216C30.7722 93.144 30.6922 93.084 30.5722 93.036C30.4602 92.996 30.3642 92.984 30.2842 93C30.2362 93.016 30.1842 93.072 30.1282 93.168C30.0802 93.272 30.0522 93.372 30.0442 93.468C30.0362 93.54 30.0322 93.896 30.0322 94.536ZM38.4969 90.264C39.4409 90.264 39.9489 90.264 40.0209 90.264C40.3089 90.24 40.4769 90.196 40.5249 90.132C40.5809 90.068 40.5889 89.892 40.5489 89.604C40.5489 89.548 40.5249 89.492 40.4769 89.436C40.4289 89.372 40.3809 89.328 40.3329 89.304C40.2929 89.28 39.9889 89.168 39.4209 88.968C39.2049 88.888 39.0089 88.948 38.8329 89.148C38.6009 89.42 38.4889 89.792 38.4969 90.264ZM38.7489 91.728C38.7649 91.992 38.8569 92.212 39.0249 92.388C39.1929 92.556 39.4169 92.656 39.6969 92.688C40.0089 92.72 40.2729 92.716 40.4889 92.676C40.5449 92.66 40.6049 92.62 40.6689 92.556C40.7409 92.484 40.7889 92.412 40.8129 92.34C40.8609 92.196 40.9569 92.124 41.1009 92.124C41.7489 92.1 42.2609 92.092 42.6369 92.1C42.6689 92.108 42.7049 92.144 42.7449 92.208C42.7929 92.264 42.8129 92.312 42.8049 92.352C42.7569 92.984 42.6449 93.464 42.4689 93.792C42.2929 94.128 41.9409 94.416 41.4129 94.656C41.3249 94.704 41.2489 94.728 41.1849 94.728C41.0809 94.736 40.7049 94.788 40.0569 94.884C39.4089 94.98 38.9129 95 38.5689 94.944C37.5049 94.776 36.6689 94.408 36.0609 93.84C35.7089 93.504 35.4449 93.064 35.2689 92.52C35.2529 92.456 35.2209 92.368 35.1729 92.256C35.1329 92.144 35.1009 92.052 35.0769 91.98C35.0529 91.908 35.0329 91.82 35.0169 91.716C35.0009 91.612 34.9969 91.512 35.0049 91.416C35.1969 90.04 35.6209 88.996 36.2769 88.284C37.1089 87.388 38.0929 86.932 39.2289 86.916C39.4369 86.908 39.9049 86.94 40.6329 87.012C41.0729 87.06 41.4529 87.308 41.7729 87.756C41.7969 87.78 41.8289 87.82 41.8689 87.876C42.0609 88.148 42.2049 88.36 42.3009 88.512C42.4049 88.664 42.5129 88.872 42.6249 89.136C42.7369 89.392 42.8049 89.636 42.8289 89.868C42.8449 90.004 42.8529 90.156 42.8529 90.324C42.8609 90.484 42.8609 90.62 42.8529 90.732C42.8529 90.836 42.8489 90.992 42.8409 91.2C42.8329 91.4 42.8249 91.536 42.8169 91.608C42.8169 91.64 42.7889 91.676 42.7329 91.716C42.6849 91.756 42.6449 91.776 42.6129 91.776C42.4129 91.776 41.9089 91.768 41.1009 91.752C40.3569 91.736 39.6449 91.72 38.9649 91.704C38.9569 91.704 38.8849 91.712 38.7489 91.728Z" fill="#DF2D32"/>
<path d="M59.74 90.36C59.804 90.184 59.704 90.032 59.44 89.904C59.328 89.848 59.2 89.816 59.056 89.808C58.92 89.8 58.808 89.8 58.72 89.808C58.632 89.816 58.508 89.836 58.348 89.868C58.276 89.884 58.224 89.96 58.192 90.096C58.184 90.12 58.18 90.228 58.18 90.42C58.188 90.588 58.192 90.704 58.192 90.768C58.192 90.832 58.204 90.908 58.228 90.996C58.252 91.076 58.272 91.124 58.288 91.14C58.312 91.156 58.364 91.172 58.444 91.188C58.524 91.204 58.596 91.212 58.66 91.212C58.732 91.204 58.848 91.192 59.008 91.176C59.264 91.16 59.448 91.092 59.56 90.972C59.68 90.844 59.74 90.64 59.74 90.36ZM55.684 96.66C55.772 95.26 55.86 93.58 55.948 91.62C55.964 91.196 55.984 90.6 56.008 89.832C56.04 89.056 56.06 88.52 56.068 88.224C56.076 88.136 56.088 88.012 56.104 87.852C56.128 87.692 56.14 87.58 56.14 87.516C56.148 87.46 56.16 87.408 56.176 87.36C56.192 87.312 56.204 87.272 56.212 87.24C56.228 87.208 56.256 87.176 56.296 87.144C56.344 87.112 56.376 87.088 56.392 87.072C56.408 87.056 56.444 87.04 56.5 87.024C56.564 87 56.6 86.988 56.608 86.988C56.624 86.98 56.668 86.964 56.74 86.94C56.812 86.916 56.848 86.904 56.848 86.904C57.84 86.608 58.856 86.612 59.896 86.916C61.408 87.356 62.316 88.216 62.62 89.496C62.876 90.544 62.744 91.416 62.224 92.112C61.76 92.728 61.08 93.072 60.184 93.144C59.72 93.176 59.5 93.452 59.524 93.972C59.54 94.036 59.544 94.252 59.536 94.62C59.528 94.996 59.524 95.216 59.524 95.28C59.532 95.504 59.544 95.784 59.56 96.12C59.576 96.464 59.428 96.668 59.116 96.732C58.58 96.828 58.288 96.876 58.24 96.876C58.2 96.884 57.492 96.912 56.116 96.96C56.028 96.968 55.932 96.94 55.828 96.876C55.732 96.82 55.684 96.748 55.684 96.66ZM65.3095 94.728C65.3015 94.728 65.2175 94.728 65.0575 94.728C65.0095 94.376 64.9855 94.192 64.9855 94.176C64.9775 92.136 64.9815 90.908 64.9975 90.492C65.0055 90.172 65.0855 88.48 65.2375 85.416C65.2455 85.344 65.2535 85.22 65.2615 85.044C65.2695 84.86 65.2775 84.72 65.2855 84.624C65.2935 84.336 65.4495 84.192 65.7535 84.192C66.3775 84.208 66.9735 84.228 67.5415 84.252C67.7895 84.268 67.9095 84.404 67.9015 84.66C67.8135 86.5 67.7575 87.636 67.7335 88.068C67.7255 88.196 67.6935 88.596 67.6375 89.268C67.5815 89.94 67.5535 90.456 67.5535 90.816C67.5535 91.16 67.5575 91.52 67.5655 91.896C67.5815 92.272 67.5975 92.7 67.6135 93.18C67.6375 93.668 67.6535 94.028 67.6615 94.26V94.536C67.6615 94.544 67.5095 94.552 67.2055 94.56C66.9095 94.576 66.5655 94.596 66.1735 94.62C65.7815 94.652 65.4935 94.688 65.3095 94.728ZM72.7855 90.612C72.6255 91.02 72.6775 91.376 72.9415 91.68C73.1095 91.872 73.2815 91.996 73.4575 92.052C73.6335 92.1 73.8415 92.084 74.0815 92.004C74.1695 91.972 74.2455 91.932 74.3095 91.884C74.3815 91.828 74.4375 91.752 74.4775 91.656C74.5255 91.552 74.5575 91.48 74.5735 91.44C74.5895 91.4 74.6215 91.312 74.6695 91.176C74.7335 90.968 74.7255 90.784 74.6455 90.624C74.5655 90.464 74.4335 90.292 74.2495 90.108C74.1535 90.012 74.0055 89.96 73.8055 89.952C73.6135 89.944 73.4135 89.996 73.2055 90.108C73.0055 90.22 72.8655 90.388 72.7855 90.612ZM75.1015 87.816V87.648C75.0855 87.368 75.1095 87.192 75.1735 87.12C75.2455 87.048 75.4375 86.992 75.7495 86.952C75.9095 86.928 76.0855 86.916 76.2775 86.916C76.4775 86.916 76.6415 86.92 76.7695 86.928C76.9055 86.936 77.0855 86.952 77.3095 86.976C77.5415 87 77.7095 87.016 77.8135 87.024C77.9975 87.04 78.1215 87.084 78.1855 87.156C78.2495 87.22 78.2815 87.344 78.2815 87.528C78.2895 88.808 78.2895 89.748 78.2815 90.348C78.2735 90.54 78.2495 90.82 78.2095 91.188C78.1775 91.548 78.1575 91.768 78.1495 91.848C78.1415 91.912 78.1375 92.028 78.1375 92.196C78.1375 92.364 78.1335 92.476 78.1255 92.532C78.0775 92.908 78.0175 93.264 77.9455 93.6C77.9055 93.784 77.8335 93.916 77.7295 93.996C77.6255 94.084 77.4775 94.14 77.2855 94.164C76.6695 94.22 76.2455 94.248 76.0135 94.248C75.9815 94.248 75.9495 94.236 75.9175 94.212C75.8855 94.188 75.8455 94.152 75.7975 94.104C75.7495 94.056 75.7095 94.02 75.6775 93.996C74.9175 94.3 74.2535 94.44 73.6855 94.416C72.8215 94.376 72.0815 94.204 71.4655 93.9C70.8095 93.58 70.4135 93.02 70.2775 92.22C70.1415 91.412 70.1495 90.572 70.3015 89.7C70.4135 89.06 70.7615 88.496 71.3455 88.008C71.9855 87.472 72.7255 87.212 73.5655 87.228C74.2455 87.244 74.7575 87.44 75.1015 87.816ZM85.5752 88.548C85.1992 88.132 84.7672 87.948 84.2792 87.996C84.1992 88.004 84.1192 88.032 84.0392 88.08C83.9592 88.12 83.8952 88.16 83.8472 88.2C83.8072 88.24 83.7512 88.3 83.6792 88.38C83.6072 88.452 83.5512 88.504 83.5112 88.536C82.9352 89.072 82.7072 89.74 82.8272 90.54C82.8992 91.036 83.1952 91.38 83.7152 91.572C84.3712 91.812 84.9232 91.788 85.3712 91.5C85.5312 91.396 85.6872 91.224 85.8392 90.984C85.8872 90.912 85.9272 90.868 85.9592 90.852C85.9912 90.836 86.0472 90.84 86.1272 90.864C86.3112 90.936 86.6472 91.056 87.1352 91.224C87.3112 91.28 87.4232 91.352 87.4712 91.44C87.5272 91.52 87.5392 91.652 87.5072 91.836C87.4112 92.428 87.1592 92.912 86.7512 93.288C86.3432 93.656 85.8792 93.864 85.3592 93.912C84.0712 94.016 82.9152 93.824 81.8912 93.336C80.9952 92.904 80.4472 92.168 80.2472 91.128C80.0792 90.208 80.1192 89.324 80.3672 88.476C80.7192 87.308 81.3232 86.492 82.1792 86.028C82.5072 85.852 82.7992 85.728 83.0552 85.656C83.3192 85.576 83.5952 85.56 83.8832 85.608C84.1632 85.656 84.4752 85.72 84.8192 85.8C85.1872 85.896 85.5312 85.996 85.8512 86.1C86.0832 86.172 86.2752 86.368 86.4272 86.688C86.4432 86.72 86.5552 86.968 86.7632 87.432L85.5752 88.548ZM93.0008 90.264C93.9448 90.264 94.4528 90.264 94.5248 90.264C94.8128 90.24 94.9808 90.196 95.0288 90.132C95.0848 90.068 95.0928 89.892 95.0528 89.604C95.0528 89.548 95.0288 89.492 94.9808 89.436C94.9328 89.372 94.8848 89.328 94.8368 89.304C94.7968 89.28 94.4928 89.168 93.9248 88.968C93.7088 88.888 93.5128 88.948 93.3368 89.148C93.1048 89.42 92.9928 89.792 93.0008 90.264ZM93.2528 91.728C93.2688 91.992 93.3608 92.212 93.5288 92.388C93.6968 92.556 93.9208 92.656 94.2008 92.688C94.5128 92.72 94.7768 92.716 94.9928 92.676C95.0488 92.66 95.1088 92.62 95.1728 92.556C95.2448 92.484 95.2928 92.412 95.3168 92.34C95.3648 92.196 95.4608 92.124 95.6048 92.124C96.2528 92.1 96.7648 92.092 97.1408 92.1C97.1728 92.108 97.2088 92.144 97.2488 92.208C97.2968 92.264 97.3168 92.312 97.3088 92.352C97.2608 92.984 97.1488 93.464 96.9728 93.792C96.7968 94.128 96.4448 94.416 95.9168 94.656C95.8288 94.704 95.7528 94.728 95.6888 94.728C95.5848 94.736 95.2088 94.788 94.5608 94.884C93.9128 94.98 93.4168 95 93.0728 94.944C92.0088 94.776 91.1728 94.408 90.5648 93.84C90.2128 93.504 89.9488 93.064 89.7728 92.52C89.7568 92.456 89.7248 92.368 89.6768 92.256C89.6368 92.144 89.6048 92.052 89.5808 91.98C89.5568 91.908 89.5368 91.82 89.5208 91.716C89.5048 91.612 89.5008 91.512 89.5088 91.416C89.7008 90.04 90.1248 88.996 90.7808 88.284C91.6128 87.388 92.5968 86.932 93.7328 86.916C93.9408 86.908 94.4088 86.94 95.1368 87.012C95.5768 87.06 95.9568 87.308 96.2768 87.756C96.3008 87.78 96.3328 87.82 96.3728 87.876C96.5648 88.148 96.7088 88.36 96.8048 88.512C96.9088 88.664 97.0168 88.872 97.1288 89.136C97.2408 89.392 97.3088 89.636 97.3328 89.868C97.3488 90.004 97.3568 90.156 97.3568 90.324C97.3648 90.484 97.3648 90.62 97.3568 90.732C97.3568 90.836 97.3528 90.992 97.3448 91.2C97.3368 91.4 97.3288 91.536 97.3208 91.608C97.3208 91.64 97.2928 91.676 97.2368 91.716C97.1888 91.756 97.1488 91.776 97.1168 91.776C96.9168 91.776 96.4128 91.768 95.6048 91.752C94.8608 91.736 94.1488 91.72 93.4688 91.704C93.4608 91.704 93.3888 91.712 93.2528 91.728Z" fill="#1D73BA"/>
<path d="M113.512 91.272C113.504 91.408 113.552 91.524 113.656 91.62C113.76 91.708 113.888 91.748 114.04 91.74C114.256 91.732 114.376 91.568 114.4 91.248C114.416 90.944 114.32 90.776 114.112 90.744C113.976 90.72 113.844 90.764 113.716 90.876C113.588 90.988 113.52 91.12 113.512 91.272ZM117.784 91.044C117.784 91.388 117.728 91.776 117.616 92.208C117.512 92.64 117.32 93.044 117.04 93.42C116.736 93.836 116.42 94.168 116.092 94.416C115.772 94.672 115.392 94.824 114.952 94.872C114.848 94.88 114.664 94.92 114.4 94.992C114.144 95.064 113.948 95.096 113.812 95.088C113.164 95.064 112.644 94.968 112.252 94.8C111.652 94.544 111.132 94.212 110.692 93.804C109.884 93.076 109.64 92.024 109.96 90.648C110.136 89.872 110.348 89.228 110.596 88.716C111.052 87.78 111.796 87.024 112.828 86.448C112.956 86.376 113.132 86.364 113.356 86.412C113.54 86.452 113.804 86.52 114.148 86.616C114.492 86.704 114.74 86.764 114.892 86.796C115.62 86.972 116.232 87.324 116.728 87.852C117.096 88.236 117.364 88.68 117.532 89.184C117.708 89.68 117.792 90.3 117.784 91.044ZM122.09 89.76C121.562 89.84 121.242 89.888 121.13 89.904C120.858 89.952 120.678 89.94 120.59 89.868C120.502 89.788 120.454 89.64 120.446 89.424C120.406 88.8 120.398 88.248 120.422 87.768C120.422 87.648 120.462 87.548 120.542 87.468C120.63 87.38 120.738 87.328 120.866 87.312C120.938 87.304 121.358 87.264 122.126 87.192C122.198 86.776 122.234 86.556 122.234 86.532C122.266 86.38 122.31 86.16 122.366 85.872C122.422 85.584 122.454 85.42 122.462 85.38C122.494 85.196 122.61 85.076 122.81 85.02C123.482 84.844 124.03 84.896 124.454 85.176C124.606 85.272 124.682 85.42 124.682 85.62C124.682 85.748 124.706 86.196 124.754 86.964C124.77 87.148 124.882 87.224 125.09 87.192C125.386 87.136 125.686 87.104 125.99 87.096C126.454 87.08 126.698 87.3 126.722 87.756C126.738 88.004 126.734 88.46 126.71 89.124C126.71 89.22 126.638 89.312 126.494 89.4C126.358 89.48 126.206 89.528 126.038 89.544C125.974 89.552 125.742 89.592 125.342 89.664C125.15 89.696 125.054 89.808 125.054 90C125.07 90.688 125.094 91.388 125.126 92.1C125.126 92.22 125.162 92.32 125.234 92.4C125.306 92.472 125.402 92.516 125.522 92.532C125.626 92.556 125.802 92.508 126.05 92.388C126.306 92.26 126.502 92.196 126.638 92.196C126.854 92.204 126.986 92.232 127.034 92.28C127.09 92.328 127.114 92.456 127.106 92.664C127.098 93 127.05 93.348 126.962 93.708C126.882 94.076 126.742 94.308 126.542 94.404C125.846 94.756 125.042 94.968 124.13 95.04C123.57 95.088 123.266 95.112 123.218 95.112C122.746 95.112 122.474 94.892 122.402 94.452C122.25 93.54 122.15 92.756 122.102 92.1C122.094 91.876 122.086 91.64 122.078 91.392C122.078 91.144 122.078 90.852 122.078 90.516C122.086 90.18 122.09 89.928 122.09 89.76ZM132.414 89.76C131.886 89.84 131.566 89.888 131.454 89.904C131.182 89.952 131.002 89.94 130.914 89.868C130.826 89.788 130.778 89.64 130.77 89.424C130.73 88.8 130.722 88.248 130.746 87.768C130.746 87.648 130.786 87.548 130.866 87.468C130.954 87.38 131.062 87.328 131.19 87.312C131.262 87.304 131.682 87.264 132.45 87.192C132.522 86.776 132.558 86.556 132.558 86.532C132.59 86.38 132.634 86.16 132.69 85.872C132.746 85.584 132.778 85.42 132.786 85.38C132.818 85.196 132.934 85.076 133.134 85.02C133.806 84.844 134.354 84.896 134.778 85.176C134.93 85.272 135.006 85.42 135.006 85.62C135.006 85.748 135.03 86.196 135.078 86.964C135.094 87.148 135.206 87.224 135.414 87.192C135.71 87.136 136.01 87.104 136.314 87.096C136.778 87.08 137.022 87.3 137.046 87.756C137.062 88.004 137.058 88.46 137.034 89.124C137.034 89.22 136.962 89.312 136.818 89.4C136.682 89.48 136.53 89.528 136.362 89.544C136.298 89.552 136.066 89.592 135.666 89.664C135.474 89.696 135.378 89.808 135.378 90C135.394 90.688 135.418 91.388 135.45 92.1C135.45 92.22 135.486 92.32 135.558 92.4C135.63 92.472 135.726 92.516 135.846 92.532C135.95 92.556 136.126 92.508 136.374 92.388C136.63 92.26 136.826 92.196 136.962 92.196C137.178 92.204 137.31 92.232 137.358 92.28C137.414 92.328 137.438 92.456 137.43 92.664C137.422 93 137.374 93.348 137.286 93.708C137.206 94.076 137.066 94.308 136.866 94.404C136.17 94.756 135.366 94.968 134.454 95.04C133.894 95.088 133.59 95.112 133.542 95.112C133.07 95.112 132.798 94.892 132.726 94.452C132.574 93.54 132.474 92.756 132.426 92.1C132.418 91.876 132.41 91.64 132.402 91.392C132.402 91.144 132.402 90.852 132.402 90.516C132.41 90.18 132.414 89.928 132.414 89.76ZM143.758 91.272C143.75 91.408 143.798 91.524 143.902 91.62C144.006 91.708 144.134 91.748 144.286 91.74C144.502 91.732 144.622 91.568 144.646 91.248C144.662 90.944 144.566 90.776 144.358 90.744C144.222 90.72 144.09 90.764 143.962 90.876C143.834 90.988 143.766 91.12 143.758 91.272ZM148.03 91.044C148.03 91.388 147.974 91.776 147.862 92.208C147.758 92.64 147.566 93.044 147.286 93.42C146.982 93.836 146.666 94.168 146.338 94.416C146.018 94.672 145.638 94.824 145.198 94.872C145.094 94.88 144.91 94.92 144.646 94.992C144.39 95.064 144.194 95.096 144.058 95.088C143.41 95.064 142.89 94.968 142.498 94.8C141.898 94.544 141.378 94.212 140.938 93.804C140.13 93.076 139.886 92.024 140.206 90.648C140.382 89.872 140.594 89.228 140.842 88.716C141.298 87.78 142.042 87.024 143.074 86.448C143.202 86.376 143.378 86.364 143.602 86.412C143.786 86.452 144.05 86.52 144.394 86.616C144.738 86.704 144.986 86.764 145.138 86.796C145.866 86.972 146.478 87.324 146.974 87.852C147.342 88.236 147.61 88.68 147.778 89.184C147.954 89.68 148.038 90.3 148.03 91.044ZM153.656 90.672C154.016 90.608 154.208 90.572 154.232 90.564C154.4 90.532 154.504 90.484 154.544 90.42C154.592 90.356 154.608 90.24 154.592 90.072C154.584 90 154.564 89.864 154.532 89.664C154.508 89.464 154.496 89.308 154.496 89.196C154.488 89.044 154.404 88.956 154.244 88.932C153.876 88.86 153.532 88.944 153.212 89.184C153.172 89.224 153.14 89.28 153.116 89.352C153.1 89.424 153.088 89.52 153.08 89.64C153.072 89.76 153.064 89.844 153.056 89.892C153.056 89.916 153.06 89.964 153.068 90.036C153.084 90.284 153.124 90.444 153.188 90.516C153.26 90.588 153.416 90.64 153.656 90.672ZM153.212 94.44C153.196 94.592 153.176 94.82 153.152 95.124C153.744 95.084 154.06 95.06 154.1 95.052C154.484 94.988 154.712 94.744 154.784 94.32C154.888 93.664 154.884 93.032 154.772 92.424C153.596 92.696 152.972 92.844 152.9 92.868C152.9 92.868 152.888 92.872 152.864 92.88C152.848 92.888 152.836 92.888 152.828 92.88C152.804 92.88 152.712 92.876 152.552 92.868C152.4 92.852 152.304 92.84 152.264 92.832C152.224 92.824 152.136 92.812 152 92.796C151.872 92.78 151.776 92.764 151.712 92.748C151.648 92.732 151.564 92.708 151.46 92.676C151.364 92.644 151.272 92.612 151.184 92.58C151.104 92.54 151.024 92.496 150.944 92.448C150.32 92.056 149.992 91.404 149.96 90.492C149.944 89.884 150.056 89.156 150.296 88.308C150.36 88.076 150.588 87.788 150.98 87.444C151.428 87.052 152.104 86.752 153.008 86.544C153.272 86.488 153.56 86.46 153.872 86.46C154.184 86.452 154.44 86.46 154.64 86.484C154.84 86.5 155.128 86.532 155.504 86.58C155.56 86.588 155.752 86.612 156.08 86.652C156.408 86.692 156.62 86.72 156.716 86.736C156.852 86.76 156.94 86.808 156.98 86.88C157.028 86.952 157.064 87.064 157.088 87.216C157.128 87.48 157.16 87.744 157.184 88.008C157.208 88.272 157.228 88.56 157.244 88.872C157.26 89.184 157.268 89.436 157.268 89.628C157.276 89.82 157.284 90.108 157.292 90.492C157.3 90.876 157.304 91.14 157.304 91.284C157.336 92.34 157.332 93.136 157.292 93.672C157.244 94.488 157.144 95.184 156.992 95.76C156.888 96.192 156.628 96.556 156.212 96.852C155.804 97.148 155.34 97.296 154.82 97.296C154.38 97.296 153.752 97.264 152.936 97.2C152.632 97.168 152.36 97 152.12 96.696C151.816 96.304 151.656 95.792 151.64 95.16C151.632 95.08 151.632 95.016 151.64 94.968C151.648 94.928 151.676 94.88 151.724 94.824C151.772 94.776 151.848 94.748 151.952 94.74C152.072 94.724 152.244 94.672 152.468 94.584C152.7 94.504 152.836 94.456 152.876 94.44C152.884 94.44 152.996 94.44 153.212 94.44ZM159.857 84.564C159.953 84.54 160.101 84.5 160.301 84.444C160.509 84.38 160.689 84.332 160.841 84.3C161.001 84.26 161.157 84.228 161.309 84.204C161.749 84.148 162.053 84.316 162.221 84.708C162.261 84.796 162.293 84.888 162.317 84.984C162.341 85.072 162.357 85.168 162.365 85.272C162.373 85.368 162.377 85.452 162.377 85.524C162.377 85.596 162.369 85.692 162.353 85.812C162.345 85.932 162.337 86.02 162.329 86.076C162.329 86.124 162.317 86.22 162.293 86.364C162.269 86.5 162.257 86.584 162.257 86.616C162.225 86.816 162.069 86.92 161.789 86.928C161.133 86.952 160.681 86.964 160.433 86.964C160.377 86.956 160.317 86.932 160.253 86.892C160.197 86.852 160.153 86.808 160.121 86.76C159.793 86.192 159.693 85.592 159.821 84.96C159.821 84.952 159.833 84.82 159.857 84.564ZM160.169 88.404C160.897 88.148 161.657 88.148 162.449 88.404C162.889 88.548 163.109 88.836 163.109 89.268C163.117 91.132 163.117 92.652 163.109 93.828C163.101 94.172 163.045 94.396 162.941 94.5C162.837 94.612 162.613 94.692 162.269 94.74C162.173 94.756 162.013 94.784 161.789 94.824C161.565 94.872 161.393 94.9 161.273 94.908C161.177 94.924 161.065 94.88 160.937 94.776C160.785 94.648 160.661 94.512 160.565 94.368C160.477 94.224 160.409 94.056 160.361 93.864C160.321 93.672 160.293 93.512 160.277 93.384C160.269 93.256 160.261 93.072 160.253 92.832C160.245 92.776 160.241 92.732 160.241 92.7C160.225 92.244 160.201 91.272 160.169 89.784C160.169 89.728 160.169 89.268 160.169 88.404Z" fill="black"/>
<g filter="url(#filter1_d_544_4)">
<path d="M168.034 50.6728C168.112 46.5273 168.272 42.4107 168.514 38.3231C168.762 34.1931 169.266 29.9155 170.026 25.4902C170.398 23.3409 171.457 21.683 173.203 20.5163C174.955 19.3073 177.105 18.8199 179.655 19.0542C182.204 19.2884 184.175 20.1545 185.567 21.6524C186.965 23.108 187.563 24.9182 187.361 27.083C186.898 31.5357 186.246 35.7997 185.403 39.8749C184.566 43.9079 183.641 47.9542 182.629 52.0139C182.158 53.9399 181.249 55.4404 179.901 56.5153C178.597 57.5942 176.797 58.0282 174.503 57.8174C172.209 57.6066 170.546 56.8544 169.513 55.5608C168.481 54.2672 167.988 52.6379 168.034 50.6728ZM164.484 68.6484C164.838 65.9839 165.884 63.9394 167.621 62.515C169.401 61.0946 171.566 60.5015 174.115 60.7357C176.707 60.9739 178.664 61.9457 179.985 63.6511C181.307 65.3566 181.791 67.5416 181.437 70.2062C181.29 71.3058 180.946 72.2802 180.403 73.1294C179.854 74.0208 179.153 74.7698 178.298 75.3762C177.486 75.9866 176.523 76.4333 175.411 76.7163C174.34 77.0033 173.189 77.0901 171.957 76.9769C170.725 76.8637 169.603 76.568 168.591 76.0897C167.622 75.6154 166.8 75.0047 166.125 74.2577C165.493 73.5146 165.026 72.6583 164.725 71.6888C164.418 70.7616 164.338 69.7481 164.484 68.6484Z" fill="black"/>
</g>
<defs>
<filter id="filter0_d_544_4" x="0.512207" y="16.336" width="161.546" height="63.872" filterUnits="userSpaceOnUse" color-interpolation-filters="sRGB">
<feFlood flood-opacity="0" result="BackgroundImageFix"/>
<feColorMatrix in="SourceAlpha" type="matrix" values="0 0 0 0 0 0 0 0 0 0 0 0 0 0 0 0 0 0 127 0" result="hardAlpha"/>
<feOffset dx="2" dy="2"/>
<feGaussianBlur stdDeviation="2"/>
<feComposite in2="hardAlpha" operator="out"/>
<feColorMatrix type="matrix" values="0 0 0 0 0 0 0 0 0 0 0 0 0 0 0 0 0 0 0.16 0"/>
<feBlend mode="normal" in2="BackgroundImageFix" result="effect1_dropShadow_544_4"/>
<feBlend mode="normal" in="SourceGraphic" in2="effect1_dropShadow_544_4" result="shape"/>
</filter>
<filter id="filter1_d_544_4" x="161.035" y="16.2343" width="33.4785" height="67.5566" filterUnits="userSpaceOnUse" color-interpolation-filters="sRGB">
<feFlood flood-opacity="0" result="BackgroundImageFix"/>
<feColorMatrix in="SourceAlpha" type="matrix" values="0 0 0 0 0 0 0 0 0 0 0 0 0 0 0 0 0 0 127 0" result="hardAlpha"/>
<feOffset dx="2" dy="2"/>
<feGaussianBlur stdDeviation="2"/>
<feComposite in2="hardAlpha" operator="out"/>
<feColorMatrix type="matrix" values="0 0 0 0 0 0 0 0 0 0 0 0 0 0 0 0 0 0 0.16 0"/>
<feBlend mode="normal" in2="BackgroundImageFix" result="effect1_dropShadow_544_4"/>
<feBlend mode="normal" in="SourceGraphic" in2="effect1_dropShadow_544_4" result="shape"/>
</filter>
</defs>
</svg>
