<svg width="28" height="31" viewBox="0 0 28 31" fill="none" xmlns="http://www.w3.org/2000/svg">
<path fill-rule="evenodd" clip-rule="evenodd" d="M16.6121 3.59294C15.9096 2.91328 14.9737 2.53376 14 2.53376C13.0263 2.53376 12.0904 2.91328 11.3879 3.59294L3.63222 11.0971C3.4421 11.2809 3.31422 11.5204 3.26673 11.7816C2.33789 16.8884 2.26931 22.1165 3.06387 27.2462L3.25164 28.4648H8.24273V17.9674C8.24273 17.6313 8.37521 17.3088 8.61102 17.0711C8.84683 16.8334 9.16666 16.6999 9.50014 16.6999H18.4999C18.8333 16.6999 19.1532 16.8334 19.389 17.0711C19.6248 17.3088 19.7573 17.6313 19.7573 17.9674V28.4648H24.7484L24.9361 27.2479C25.7318 22.1172 25.6637 16.8879 24.7349 11.7799C24.6867 11.5191 24.5582 11.2802 24.3678 11.0971L16.6121 3.59294ZM9.64768 1.76423C10.8183 0.632122 12.3778 0 14 0C15.6222 0 17.1817 0.632122 18.3523 1.76423L26.1097 9.26838C26.6797 9.81936 27.0654 10.5394 27.2079 11.3236C28.187 16.7112 28.259 22.2266 27.4208 27.6383L27.119 29.5938C27.0586 29.9857 26.8611 30.3429 26.5622 30.6008C26.2633 30.8587 25.8828 31.0003 25.4894 31H18.4999C18.1664 31 17.8465 30.8665 17.6107 30.6287C17.3749 30.391 17.2424 30.0686 17.2424 29.7324V19.235H10.7576V29.7324C10.7576 30.0686 10.6251 30.391 10.3893 30.6287C10.1535 30.8665 9.83363 31 9.50014 31H2.51061C2.1172 31.0003 1.73667 30.8587 1.4378 30.6008C1.13893 30.3429 0.941431 29.9857 0.880999 29.5938L0.57922 27.6383C-0.258968 22.2266 -0.186987 16.7112 0.792142 11.3236C0.934649 10.5394 1.32025 9.81936 1.89028 9.26669L9.64768 1.76423Z" fill="black"/>
</svg>
